<?xml version="1.0" encoding="utf-8"?>
<!-- Generator: Adobe Illustrator 27.0.1, SVG Export Plug-In . SVG Version: 6.00 Build 0)  -->
<svg version="1.1" id="Capa_1" xmlns="http://www.w3.org/2000/svg" xmlns:xlink="http://www.w3.org/1999/xlink" x="0px" y="0px"
	 viewBox="0 0 494.9 318.8" style="enable-background:new 0 0 494.9 318.8;" xml:space="preserve">
<style type="text/css">
	.st0{fill:url(#SVGID_1_);}
	.st1{fill-rule:evenodd;clip-rule:evenodd;fill:#FCCA00;}
	.st2{fill:url(#SVGID_00000021827477573539228870000014613371281934162080_);}
	.st3{fill:url(#SVGID_00000145751370468965274310000002217141510860869564_);}
	.st4{fill:#054993;}
	.st5{fill:#FCCA00;}
	.st6{fill:#20438B;}
	.st7{fill-rule:evenodd;clip-rule:evenodd;fill:#20438B;}
</style>
<g>
	<g>
		<g>
			<g>
				
					<linearGradient id="SVGID_1_" gradientUnits="userSpaceOnUse" x1="1862.9215" y1="-1546.6946" x2="2000.9286" y2="-1363.5529" gradientTransform="matrix(1 0 0 1 -1692 1570.1338)">
					<stop  offset="0" style="stop-color:#BBBBBA"/>
					<stop  offset="0.3125" style="stop-color:#E3E4E4"/>
					<stop  offset="0.4531" style="stop-color:#F8F8F8"/>
					<stop  offset="0.6602" style="stop-color:#E3E4E4"/>
					<stop  offset="1" style="stop-color:#D1D1D1"/>
				</linearGradient>
				<path class="st0" d="M167.4,168.1V63.6h18.3V12.3l44.4,1l9.7,9.4l9.1-9.5h44.8v50.5h18.5v104.5c0,9.8-1.7,19-5.6,28
					c-3.6,8.7-9,16.5-15.4,23c-6.7,6.7-14.6,11.8-23.2,15.7c-9.1,3.7-18,5.5-28.1,5.5c-9.8,0-19.1-2.2-28.1-5.8
					c-8.7-3.9-16.5-9.1-23.1-15.4c-6.7-6.4-11.8-14.3-15.4-23C169.4,187.1,167.4,177.9,167.4,168.1z"/>
				<rect x="209.2" y="198.9" class="st1" width="62.7" height="26.8"/>
				<rect x="204.2" y="73.2" class="st1" width="68" height="39"/>
				
					<linearGradient id="SVGID_00000093144653568792890200000004048162603650829229_" gradientUnits="userSpaceOnUse" x1="1899.6093" y1="-1448.7318" x2="1961.624" y2="-1403.6754" gradientTransform="matrix(1 0 0 1 -1692 1570.1338)">
					<stop  offset="0" style="stop-color:#E10D19"/>
					<stop  offset="0.5156" style="stop-color:#F19C76"/>
					<stop  offset="1" style="stop-color:#E10D19"/>
				</linearGradient>
				<path style="fill:url(#SVGID_00000093144653568792890200000004048162603650829229_);" d="M211,158.4v-41.6h57.7v41.6
					c0,3.9-0.7,7.6-2.2,11.2c-1.4,3.5-3.6,6.6-6.1,9.2c-2.7,2.7-5.8,4.7-9.3,6.3c-3.6,1.5-7.2,2.2-11.2,2.2c-3.9,0-7.6-0.9-11.2-2.3
					c-3.5-1.6-6.6-3.6-9.2-6.1c-2.7-2.6-4.7-5.7-6.1-9.2C211.8,166,211,162.3,211,158.4z"/>
			</g>
			
				<linearGradient id="SVGID_00000156554695373102136040000011713136763311521922_" gradientUnits="userSpaceOnUse" x1="154.9954" y1="52.5203" x2="325.2158" y2="180.7906">
				<stop  offset="0" style="stop-color:#00A4DF"/>
				<stop  offset="0.3359" style="stop-color:#054993"/>
				<stop  offset="0.8477" style="stop-color:#054993"/>
				<stop  offset="1" style="stop-color:#00A4DF"/>
			</linearGradient>
			<path style="fill:url(#SVGID_00000156554695373102136040000011713136763311521922_);" d="M263.4,91.3l2,19.4h1.3l2.2-19.4v-2.7
				h-5.5V91.3z M261.9,82.5c0.2,0.7,0.3,1.1,0.3,1.1c0.4,1.8,2,3.1,4,3.1c2.3,0,4.2-1.9,4.2-4.2c0-1-0.4-2-1-2.8
				c0,0.5,0,0.9-0.1,1.1c-0.6,1.3-1.5,1.1-1.7,0.9l0.4-0.7c0.7-1.2-0.5-2.8-0.8-3c-1.5-1.3-1.2-2.1-1.2-3.3
				c-1.5,1.6-2.2,3.2-2.6,4.3c-0.4,1.6,0,3.4,1.8,5C263.4,83.9,262.3,83.2,261.9,82.5z M244.7,82.5c0.2,0.7,0.3,1.1,0.3,1.1
				c0.4,1.8,2,3.1,4,3.1c2.3,0,4.2-1.9,4.2-4.2c0-1-0.4-2-1-2.8c0,0.5,0,0.9-0.1,1.1c-0.5,1.3-1.5,1.1-1.7,0.9l0.4-0.7
				c0.7-1.2-0.5-2.8-0.7-3c-1.5-1.3-1.2-2.1-1.2-3.3c-1.5,1.6-2.2,3.2-2.6,4.3c-0.4,1.6,0,3.4,1.8,5
				C246.2,83.9,245.1,83.2,244.7,82.5z M246.2,91.3l2,19.4h1.3l2.2-19.4v-2.7h-5.5V91.3z M229,91.3l2,19.4h1.3l2.2-19.4v-2.7H229
				V91.3z M227.5,82.5c0.2,0.7,0.3,1.1,0.3,1.1c0.4,1.8,2,3.1,4,3.1c2.3,0,4.2-1.9,4.2-4.2c0-1-0.4-2-1-2.8c0,0.5,0,0.9-0.1,1.1
				c-0.6,1.3-1.5,1.1-1.7,0.9l0.4-0.7c0.7-1.2-0.5-2.8-0.7-3c-1.5-1.3-1.2-2.1-1.2-3.3c-1.5,1.6-2.2,3.2-2.6,4.3
				c-0.4,1.6,0,3.4,1.8,5C229,83.9,227.9,83.2,227.5,82.5z M210.3,82.5c0.2,0.7,0.3,1.1,0.3,1.1c0.4,1.8,2,3.1,4,3.1
				c2.3,0,4.2-1.9,4.2-4.2c0-1-0.4-2-1-2.8c0,0.5,0,0.9-0.1,1.1c-0.5,1.3-1.5,1.1-1.7,0.9l0.4-0.7c0.7-1.2-0.5-2.8-0.8-3
				c-1.5-1.3-1.2-2.1-1.2-3.3c-1.5,1.6-2.2,3.2-2.6,4.3c-0.4,1.6,0,3.4,1.8,5C211.8,83.9,210.7,83.2,210.3,82.5z M211.8,91.3l2,19.4
				h1.3l2.2-19.4v-2.7h-5.5V91.3z M245.4,15.5c2.6-2.3,5.9-3.6,9.9-3.6h38.9c0.7,0,0.9,0.2,1.3,0.7c0.4,0.2,0.4,0.4,0.7,0.7v0.7
				v48.8h16.5l1.1,0.2c0.4,0,0.7,0.2,0.9,0.5c0.7,0.7,0.9,1.6,0.9,2.3v101.7c0,10.2-2,20.1-5.7,29.8c-4.2,9.5-9.5,17.6-16,24.4
				c-7,7-14.9,12.6-24,16.5c-9,4.1-18.7,6.1-29.5,6.1c-10.1,0-19.8-2-29-6.1c-9.2-3.9-17.1-9.5-23.7-16.5
				c-6.8-6.8-12.3-14.9-16.3-24.4c-3.7-10.2-5.7-20.1-5.7-29.8V65.7c0-0.7,0.2-1.6,0.7-2.3c0.4-0.5,1.1-0.7,1.8-0.7h16.7V13.9v-0.7
				c0-0.2,0.2-0.4,0.4-0.7c0.4-0.5,0.9-0.7,1.3-0.7h39.3c3.7,0,7.2,1.4,10.1,3.6c2,1.6,3.5,3.4,4.6,5.4
				C241.8,18.9,243.4,17.1,245.4,15.5z M243.2,25.5h-4.8c-1.1-2.9-2.6-5.2-4.6-6.8c-2.2-1.8-5.1-2.7-7.9-2.7h-37.4v46.6h37.4
				c2.6,0,5.3,0.5,7.7,1.8c1.3,0.7,2.9,1.8,4.2,2.9c1.3,2,2.4,3.4,2.9,4.3c0.4-0.9,1.3-2.3,2.8-4.3c1.3-1.1,2.6-2.3,4.2-2.9
				c2.4-1.4,4.8-1.8,7.7-1.8h36.9V16h-36.9c-3.1,0-5.7,0.9-7.7,2.7C245.1,20.5,243.6,22.7,243.2,25.5z M279.4,110.9
				c0.9,0.2,2,0.2,2.9,0.2c2.6,0,4.8-0.7,7-1.8c4.6-2.5,9.7-3.9,14.9-3.9c2.4,0,4.6,0.2,7.2,0.9V66.6
				C311.5,66.6,279,110.7,279.4,110.9z M271.7,141c1.1,1.1,2.6,2.3,4.4,3.2l0.4,0.2c1.3,0.5,2,0.7,2.9,0.9c0.8,0.1,2,0.2,2.9,0.2
				c2.6,0,4.8-0.7,7-2c4.6-2.5,9.7-3.6,14.9-3.6c2.4,0,4.6,0.2,7.2,0.9v-16.2c-0.4-0.2-0.9-0.5-1.3-0.7c-1.5-0.9-3.5-1.4-5.9-1.4
				c-3.1,0-5.5,0.7-7.2,1.8c-5.3,2.5-10.1,4.1-14.7,4.1c-4.4,0-8.3-1.1-12.1-2.9v14C270.6,139.8,271.7,141,271.7,141z M169.5,66.6
				v39.6c2-0.5,4.4-0.7,6.8-0.7c5.7,0,10.6,1.4,15.2,3.9c2.2,1.1,4.4,1.8,6.8,1.8c1.8,0,3.5-0.2,5.5-1.1L169.5,66.6z M169.5,140.5
				c2-0.5,4.4-0.7,6.8-0.7c5.7,0,10.6,1.1,15.2,3.6c2,1.3,4.2,2,6.8,2c1.8,0,4-0.5,5.9-1.3c1.8-0.9,3.3-2,4.8-3.2l1.3-1.3v-14
				c-3.7,1.6-7.7,2.7-12.1,2.7c-5.1,0-9.7-1.6-14.3-4.1c-2-1.1-4.6-1.8-7.7-1.8c-2.4,0-4.4,0.5-5.7,1.4l-1.1,0.9
				C169.5,124.6,169.5,140.5,169.5,140.5z M213.9,160c0.4,2.5,1.1,5.2,2.2,7.9c1.3,3.4,3.1,6.3,5.5,8.8c1.3,0.9,2.4,2,4,2.9
				c0.2,0.2,0.7,0.5,1.1,0.7c1.1,0.9,2.2,1.6,3.5,2c2.6,1.1,6.1,1.8,10.1,2c4.2-0.2,7.5-0.9,10.3-2c1.1-0.5,2.4-1.1,3.5-2
				c1.1-0.7,2.2-1.4,3.3-2.3c0.4-0.5,1.1-0.9,1.5-1.4c2.4-2.5,4.4-5.4,5.7-8.8c0.2-0.3,0.3-0.6,0.4-0.9c0.9-1.9,1.5-3.6,1.8-6.8
				v-37.8h-53.2V157C213.7,157.9,213.9,159,213.9,160z M212.6,168.1c-1.3-2.9-2-6.3-2.2-9.9c-3.7,1.8-7.7,4.3-12.1,4.3
				c-5.1,0-9.7-1.4-14.3-4.1c-2-1.1-4.4-1.6-7.7-1.6c-2.4,0-4.4,0.5-5.7,1.4l-1.1,0.7v8.8c0,1.8,0,3.6,0.2,5.4
				c2.2-0.4,4.4-0.7,6.6-0.7c5.5,0,10.3,1.1,15.2,3.8c2.4,1.1,4.6,1.8,6.8,1.8c2.2,0,4.4-0.5,5.9-1.1c2-0.9,3.5-2,4.8-3.4l1.8-2.3
				c0.9-1.1,1.3-1.8,1.5-2.5L212.6,168.1z M184,191.4c-2.9-1.4-5.5-2-7.7-2c-1.1,0-2.2,0-3.3,0.5c0.4,2,1.3,4.1,2.2,6.1
				c3.7,9.3,8.8,17,15.2,23.3c0.4,0.4,0.9,0.9,1.5,1.4l22.4-30.1c-1.1,0.7-2.2,1.4-3.5,2c-4,1.6-8.3,2.5-12.5,2.5
				C193.1,195,188.2,193.6,184,191.4z M222.3,218.7l7.7,6.1l-2.9-9.7l7.7-5.9h-9.5l-3.1-9.5l-3.1,9.5h-9.7l7.9,5.9l-3.1,9.7
				L222.3,218.7z M311.3,173.3c0.2-2,0.2-3.8,0.2-5.6V159c-0.6-0.5-1.1-0.7-1.3-0.9c-1.5-0.9-3.3-1.4-5.9-1.4
				c-3.1,0-5.5,0.5-7.2,1.6c-5.3,2.7-10.1,4.1-14.7,4.1c-4.4,0-8.3-0.9-12.1-2.7c0,3.6-0.7,5.4-1.8,8.6c0.2,1.6,1.7,3.4,3.3,5.4h0
				c1.5,1.4,3.1,2.3,4.6,3.2c1.8,0.7,3.7,1.1,5.9,1.1c2.4,0,4.8-0.7,7-1.8c5.1-2.5,10.1-3.8,14.9-3.8
				C306.7,172.4,309.1,172.6,311.3,173.3z M297,191.4c-4.8,2.3-9.7,3.6-14.7,3.6c-4.4,0-8.3-0.9-12.3-2.5c-1.1-0.7-2.2-1.1-3.3-1.8
				l22.6,30.1l1.5-1.6c6.4-6.8,11.6-14.5,15.2-23.3c1-2.4,1.5-4,2.2-5.9c-1.3-0.4-2.6-0.7-3.9-0.7C302.1,189.3,299.4,190,297,191.4z
				 M266.1,224.8l-2.9-9.7l7.7-5.9h-9.4l-3.1-9.5l-3.1,9.5h-9.7l7.9,5.9l-3.1,9.7l7.9-6.1L266.1,224.8z"/>
			<path class="st4" d="M257.2,31.1c-2.4,1.8-3.5,4.1-3.5,6.6c0,2.5,1.1,4.7,3.5,6.6c1.3,0.9,2.9,1.8,4.4,2.3v9.3h-10.1v-3.2h8.8
				v-2.7c-2-0.7-3.9-1.6-5.5-2.7c-3.1-2.7-4.6-5.9-4.6-9.5c0-3.6,1.5-6.8,4.6-9.5c3.1-2.5,6.6-3.8,10.8-3.8c4.2,0,7.9,1.4,10.8,3.8
				c3.3,2.7,4.8,5.9,4.8,9.5c0.2,3.6-1.3,6.8-4.8,9.5c-1.3,1.1-3.1,2-5.3,2.7v2.7h8.8v3.2h-10.3v-9.5c1.3-0.2,2.9-0.9,4.8-2
				c2.4-1.8,3.1-4.1,3.1-6.6c0-2.5-1.1-4.5-3.1-6.6c-2.2-1.8-5.3-2.9-8.8-2.9C262.3,28.2,259.4,29.3,257.2,31.1z"/>
			<path class="st4" d="M228.9,56.2l-5.5-11.1h-15.8l-5.5,11.1h-3.9L215,23h0.9l16.7,33.2H228.9z M221.6,41.7l-5.9-12.2l-6.4,12.2
				H221.6z"/>
			<path class="st5" d="M238.5,145.3v-8.8h1.8h2v8.8c0.7,0,1.3,0.2,2,0.7l4.4-7.7c1.1,0.5,2.2,1.1,3.1,2l-4.2,7.4
				c0.2,0.2,0.5,0.5,0.9,0.7c0.2,0.2,0.4,0.5,0.7,0.9l7.3-4.5c0.7,1.1,1.3,2.3,1.8,3.4l-7.2,4.3c0.2,0.7,0.2,1.4,0.4,2h8.6v3.6h-8.6
				c-0.2,0.7-0.2,1.4-0.4,2l7.2,4.5c-0.4,1.1-1.1,2.3-1.8,3.4l-7.3-4.5c-0.2,0.5-0.4,0.7-0.7,0.9c-0.4,0.2-0.6,0.5-0.9,0.7l4.2,7.5
				c-0.9,0.9-2,1.4-3.1,2l-4.4-7.5c-0.7,0.2-1.3,0.5-2,0.5v8.6l-2,0.2l-1.8-0.2v-8.6c-0.7,0-1.3-0.2-2-0.5l-4.4,7.5
				c-1.1-0.7-2.2-1.1-3.1-2l4.2-7.2c-0.2-0.5-0.4-0.7-0.9-0.9c-0.2-0.2-0.4-0.5-0.4-0.7l-7.5,4.1c-0.7-0.9-1.3-2-1.8-3.2l7.5-4.3
				c-0.5-0.7-0.5-1.3-0.7-2.3H221v-3.6h8.6c0.2-0.7,0.2-1.4,0.4-2l-7.3-4.3c0.4-1.1,1.1-2.3,1.8-3.4l7.3,4.5
				c0.2-0.5,0.4-0.7,0.7-0.9c0.4-0.2,0.7-0.7,1.1-0.9l-4.4-7.2c0.9-0.9,2-1.6,3.1-2l4.4,7.7C237.2,145.5,237.9,145.3,238.5,145.3z"
				/>
		</g>
		<g>
			<path class="st6" d="M38.5,281.6h-5l-0.2,17.9c-0.2,0.8-0.5,1.5-1.3,2.1c-0.7,0.6-1.8,0.9-3.2,0.9c-1.3,0-2.4-0.3-3.2-0.9
				c-0.8-0.7-1.3-1.4-1.5-2.4c-0.1-0.9-0.2-2.3-0.2-4.2v-13.4h-5v13.2c0,2.9,0.2,4.9,0.6,6.3c0.2,1.1,0.7,2,1.3,2.8
				c0.8,0.9,1.8,1.6,2.9,2.1c1.2,0.6,3,0.9,5.4,0.9c1.9,0,3.4-0.3,4.8-0.8c1.2-0.4,2.1-1.2,2.9-2c0.7-0.9,1.2-2,1.4-3.1
				c0.3-1.2,0.4-3.3,0.4-6.3V281.6z"/>
			<path class="st6" d="M63.6,281.6h-4.8v16.6l-10.1-16.6h-4.9v24.8h4.7v-16.3l10,16.3h5.1V281.6z"/>
			<path class="st6" d="M68.7,281.6v24.8h5v-24.8H68.7z"/>
			<path class="st6" d="M93.6,281.6l-6,18.3l-6.3-18.3h-5.4l8.9,24.8h5.4l8.9-24.8H93.6z"/>
			<path class="st6" d="M106.4,302.2v-6.8h12.4v-4.2h-12.4v-5.4h13.3v-4.2h-18.4v24.8h18.9v-4.2H106.4z"/>
			<path class="st6" d="M143.7,284.6c-0.7-1.1-1.7-1.9-2.9-2.3c-1.2-0.4-3.1-0.7-5.8-0.7h-10.5v24.8h5V296h1c1.1,0,2,0.1,2.5,0.3
				c0.7,0.1,1.1,0.5,1.5,1c0.6,0.7,1.4,1.9,2.7,3.7l3.5,5.4h6l-3-4.9c-1.3-2.1-2.3-3.3-2.9-4c-0.6-0.8-1.4-1.4-2.7-2.1
				c2.1-0.3,3.8-1,4.9-2.3c1.1-1.2,1.7-2.8,1.7-4.5C144.8,287,144.4,285.8,143.7,284.6z M137,285.9c0.8,0.1,1.4,0.4,1.9,0.9
				c0.4,0.6,0.7,1.2,0.7,2.1c0,0.7-0.1,1.3-0.4,1.8c-0.4,0.6-0.9,0.9-1.4,1.1c-0.5,0.2-2.1,0.3-4.4,0.3h-3.8v-6.3L137,285.9z"/>
			<path class="st6" d="M153.3,282.1c-1.3,0.4-2.3,1.3-3.1,2.4c-0.8,1.1-1.1,2.3-1.1,3.7c0,1.9,0.8,3.5,2.3,5c1,0.9,2.9,1.8,5.5,2.4
				l4,1.1c0.8,0.2,1.3,0.6,1.9,1c0.3,0.4,0.4,0.9,0.4,1.5c0,0.9-0.3,1.7-1.2,2.3c-0.9,0.8-2.1,1.1-3.7,1.1c-1.4,0-2.7-0.5-3.5-1.2
				c-0.9-0.8-1.5-2-1.8-3.5l-4.9,0.4c0.3,2.8,1.3,4.9,3,6.3c1.7,1.4,4,2.2,7.2,2.2c2.1,0,3.9-0.3,5.3-1c1.4-0.6,2.6-1.4,3.3-2.7
				c0.9-1.3,1.2-2.7,1.2-4c0-1.5-0.3-2.9-0.9-4c-0.7-1.1-1.6-1.9-2.8-2.6c-1.3-0.7-3.1-1.2-5.4-1.8c-2.3-0.6-3.9-1.1-4.5-1.7
				c-0.6-0.4-0.8-0.9-0.8-1.5c0-0.6,0.3-1.1,0.8-1.4c0.9-0.7,2-1,3.4-1c1.3,0,2.3,0.3,3.1,0.9c0.8,0.6,1.2,1.4,1.4,2.8l5-0.2
				c-0.1-2.2-0.9-4.1-2.4-5.4c-1.7-1.4-4-2.1-7.1-2.1C156.3,281.2,154.6,281.4,153.3,282.1z"/>
			<path class="st6" d="M177.3,281.6h-5v24.8h5V281.6z"/>
			<path class="st6" d="M199.6,284.4c-1-1.1-2.2-1.9-3.7-2.3c-1-0.2-2.5-0.4-4.8-0.4h-9.1v24.8h9.4c1.7,0,3.2-0.2,4.4-0.6
				c1.4-0.6,2.7-1.2,3.4-2c1.2-1.1,2.1-2.5,2.7-4.3c0.5-1.6,0.8-3.3,0.8-5.3c0-2.3-0.2-4.3-0.8-5.9
				C201.5,286.8,200.7,285.4,199.6,284.4z M189.4,285.8c2.1,0,3.4,0,4,0.2c1,0.2,1.8,0.6,2.3,1.1c0.7,0.6,1.1,1.4,1.4,2.4
				c0.3,1,0.6,2.4,0.6,4.4c0,1.9-0.2,3.4-0.6,4.5c-0.3,1.1-0.8,1.9-1.3,2.3c-0.4,0.6-1.1,0.9-2,1.1c-0.6,0.1-1.6,0.2-3,0.2h-3.8
				v-16.4H189.4z"/>
			<path class="st6" d="M219.5,281.6h-5.3l-9.6,24.8h5.3l2-5.7h10l2.1,5.7h5.4L219.5,281.6z M220.2,296.6h-6.8l3.3-9.2L220.2,296.6z
				"/>
			<path class="st6" d="M245.9,282.1c-1-0.2-2.5-0.4-4.6-0.4H232v24.8h9.4c1.8,0,3.2-0.2,4.4-0.6c1.4-0.4,2.7-1.1,3.5-2
				c1.1-1.1,2-2.5,2.7-4.3c0.4-1.4,0.7-3.2,0.7-5.3c0-2.3-0.2-4.2-0.8-5.9c-0.6-1.5-1.3-3-2.3-4
				C248.6,283.3,247.3,282.5,245.9,282.1z M243.5,286c0.9,0.2,1.7,0.6,2.3,1.1c0.6,0.7,1,1.4,1.3,2.4c0.3,1,0.5,2.4,0.5,4.4
				c0,1.9-0.2,3.4-0.5,4.5c-0.3,1-0.8,1.9-1.2,2.3c-0.6,0.6-1.2,0.9-2.1,1.1c-0.6,0.1-1.6,0.2-3,0.2h-3.7v-16.4h2.2
				C241.5,285.8,242.8,285.8,243.5,286z"/>
			<path class="st6" d="M286.5,288.4c-0.6-1.5-1.3-3-2.3-4c-1-1.1-2.2-1.9-3.8-2.3c-0.9-0.2-2.4-0.4-4.7-0.4h-9.1v24.8h9.3
				c1.8,0,3.2-0.2,4.4-0.6c1.6-0.4,2.7-1.1,3.5-2c1.1-1.1,2-2.5,2.7-4.3c0.4-1.6,0.8-3.3,0.8-5.3
				C287.4,291.9,287.1,289.9,286.5,288.4z M271.7,285.8h2.2c2.1,0,3.4,0,4.1,0.2c0.9,0.2,1.7,0.6,2.3,1.1c0.6,0.6,1,1.4,1.4,2.4
				c0.3,1,0.4,2.4,0.4,4.4c0,1.9-0.1,3.4-0.4,4.5c-0.4,1.1-0.9,1.9-1.3,2.3c-0.6,0.6-1.2,0.9-2,1.1c-0.6,0.1-1.5,0.2-3.1,0.2h-3.7
				V285.8z"/>
			<path class="st6" d="M428.3,281.6h-9.9v24.8l14.4-0.2c1.3-0.1,2.4-0.5,3.4-1.2c0.8-0.6,1.5-1.4,2.1-2.6c0.6-1.1,0.8-2.2,0.8-3.2
				c0-1.5-0.3-2.8-1.2-3.8c-0.8-1.1-2-1.9-3.4-2.2c1.1-0.6,1.9-1.2,2.6-2.2c0.5-1,0.9-2,0.9-3.2c0-1-0.2-2-0.8-2.9
				c-0.4-0.8-1.1-1.6-1.9-2.1c-0.8-0.4-1.7-0.8-2.6-1C431.9,281.7,430.4,281.6,428.3,281.6z M426.8,291.5h-3.3v-5.8l7.2,0.1
				c0.8,0.1,1.4,0.3,1.8,0.9c0.5,0.4,0.7,1.1,0.7,1.9c0,0.8-0.2,1.3-0.7,1.9c-0.6,0.6-1.2,0.8-2.1,0.9
				C429.8,291.4,428.6,291.5,426.8,291.5z M423.5,295.6h4.1c2.2,0,3.8,0.1,4.4,0.3c0.5,0.2,1.1,0.7,1.6,1.1c0.3,0.7,0.5,1.2,0.5,1.9
				c0,1-0.2,1.7-0.8,2.1c-0.4,0.5-1,0.9-1.8,1l-8.1,0.2V295.6z"/>
			<path class="st6" d="M391,281.2c-2.1,0-3.9,0.3-5.4,1c-1.1,0.4-2.2,1.2-3.1,2.2c-1.1,1-1.9,2.2-2.3,3.4c-0.8,1.7-1.2,3.8-1.2,6.3
				c0,4,1.1,7.1,3.3,9.4c2.2,2.2,5.2,3.3,8.8,3.3c3.7,0,6.5-1.2,8.8-3.4c2.2-2.2,3.2-5.3,3.2-9.4c0-4.1-1.1-7.2-3.2-9.4
				C397.5,282.3,394.5,281.2,391,281.2z M391,285.5c2.1,0,3.8,0.7,5,2.1c1.2,1.3,1.9,3.4,1.9,6.3c0,2.9-0.7,5.1-1.9,6.4
				c-1.3,1.4-2.9,2.2-5,2.2c-2,0-3.6-0.8-4.9-2.2c-1.3-1.4-2-3.5-2-6.3c0-2.9,0.7-5,1.9-6.4C387.4,286.2,389,285.5,391,285.5z"/>
			<path class="st6" d="M406.3,299.8h9.4V295h-9.4V299.8z"/>
			<path class="st6" d="M464,281.2c-2,0-3.8,0.3-5.3,1c-1.2,0.4-2.2,1.2-3.2,2.2c-1.1,1-1.9,2.2-2.3,3.4c-0.8,1.8-1.1,3.9-1.1,6.3
				c0,4,1.1,7.1,3.2,9.4c2.2,2.2,5.2,3.3,8.8,3.3c3.6,0,6.6-1.2,8.7-3.4c2.2-2.3,3.3-5.4,3.3-9.4c0-4-1.1-7.2-3.3-9.4
				C470.5,282.3,467.7,281.2,464,281.2z M459,287.6c1.3-1.4,3-2.1,5-2.1c2.1,0,3.8,0.7,5,2.1c1.3,1.3,1.9,3.4,1.9,6.3
				c0,2.9-0.7,5-1.9,6.4c-1.3,1.4-2.9,2.2-5,2.2c-2,0-3.7-0.8-4.9-2.2c-1.3-1.4-2-3.5-2-6.3C457.1,291.1,457.8,288.9,459,287.6z"/>
			<path class="st6" d="M448.3,281.6h-5v24.8h5V281.6z"/>
			<path class="st6" d="M310,285.8v-4.2h-18.4v24.8h18.8v-4.2h-13.8v-6.8H309v-4.2h-12.4v-5.4H310z"/>
			<path class="st6" d="M332.2,306.4v-4.2h-12.3v-20.4h-5.1v24.6H332.2z"/>
			<path class="st6" d="M375.3,281.6h-5v24.8h5V281.6z"/>
			<path class="st6" d="M365,287.8c0-1-0.2-2-0.8-2.9c-0.4-0.8-1.1-1.4-1.9-2.1c-0.8-0.4-1.6-0.8-2.5-1c-0.9-0.1-2.3-0.2-4.4-0.2
				h-9.9v24.8l14.4-0.2c1.4-0.1,2.6-0.5,3.3-1.2c1-0.6,1.7-1.4,2.2-2.6c0.4-1,0.8-2.1,0.8-3.2c0-1.5-0.4-2.8-1.2-3.8
				c-0.9-1.1-2-1.9-3.4-2.2c1-0.6,1.9-1.2,2.5-2.2C364.6,290,365,289,365,287.8z M359.4,286.7c0.4,0.4,0.7,1,0.7,1.9
				c0,0.8-0.2,1.4-0.8,1.9c-0.6,0.6-1.2,0.8-2,0.9l-6.9,0.1v-5.8l7.1,0.1C358.4,285.9,359,286.2,359.4,286.7z M350.5,295.6h4
				c2.3,0,3.9,0.1,4.4,0.3c0.7,0.2,1.2,0.6,1.7,1.1c0.3,0.6,0.4,1.2,0.4,1.9c0,0.9-0.2,1.7-0.7,2.1c-0.4,0.5-1.1,0.9-1.8,1l-8.1,0.2
				V295.6z"/>
			<polygon class="st7" points="369.5,280.3 371.8,275.4 376.9,275.4 372.4,280.3 			"/>
			<rect x="443.3" y="281.6" class="st6" width="5" height="24.8"/>
			<polygon class="st7" points="442.6,280.3 444.8,275.4 450,275.4 445.4,280.3 			"/>
		</g>
	</g>
</g>
</svg>
